# xmcd CD database file
#
# Track frame offsets:
#	150
#	11120
#	25837
#	37735
#	49737
#	59555
#	73452
#	90817
#	101440
#	116252
#	132560
#	145752
#
# Disc length: 2152 seconds
#
# Revision: 0
# Processed by: cddbd v1.5.2PL0 Copyright (c) Steve Scherf et al.
# Submitted via: CDex 1.70beta2
#
DISCID=9e08660c
DTITLE=Carmen Mcrae and Julie London - Carmen McRae and Julie London
DYEAR=1900
DGENRE=Jazz
TTITLE0=Easy To Love
TTITLE1=If I´m Lucky
TTITLE2=Old Devil Moon
TTITLE3=Tip Toe Gently
TTITLE4=You Made Me Care
TTITLE5=The Last Time For Love
TTITLE6=Misery
TTITLE7=Too Much In Love To Care
TTITLE8=A Foogy Day
TTITLE9=Don´t Worry About Me
TTITLE10=Sometimes I Feel Like A Motherless Child
TTITLE11=You´re Blase
EXTD=
EXTT0=
EXTT1=
EXTT2=
EXTT3=
EXTT4=
EXTT5=
EXTT6=
EXTT7=
EXTT8=
EXTT9=
EXTT10=
EXTT11=
PLAYORDER=
